<?xml version="1.0" encoding="UTF-8"?>
<svg id="Layer_1" xmlns="http://www.w3.org/2000/svg" version="1.1" viewBox="0 0 22 22">
  <!-- Generator: Adobe Illustrator 29.7.1, SVG Export Plug-In . SVG Version: 2.1.1 Build 8)  -->
  <path d="M16.3,4.7c-.7,0-1.2.5-1.2,1.2s.5,1.2,1.2,1.2,1.2-.5,1.2-1.2-.5-1.2-1.2-1.2Z" fill="#c10830"/>
  <path d="M11,6.2c-2.8,0-4.9,2.3-4.9,4.9s2.3,4.9,4.9,4.9,4.9-2.3,4.9-4.9-2.2-4.9-4.9-4.9ZM11,14.3c-1.8,0-3.2-1.4-3.2-3.2s1.4-3.2,3.2-3.2,3.2,1.4,3.2,3.2-1.4,3.2-3.2,3.2Z" fill="#c10830"/>
  <path d="M15.1,1h-7.9C3.7,1,1,3.7,1,7v7.9c0,3.3,2.7,6,6,6h7.9c3.3,0,6-2.7,6-6v-7.9c0-3.3-2.6-6-5.9-6ZM19.2,15.1c0,2.3-1.8,4.2-4.2,4.2h-7.9c-2.3,0-4.2-1.8-4.2-4.2v-7.9c0-2.3,1.8-4.2,4.2-4.2h7.9c2.3,0,4.2,1.8,4.2,4.2v7.9Z" fill="#c10830"/>
</svg>